<?xml version="1.0" encoding="UTF-8" standalone="no"?>
<!-- Created with Inkscape (http://www.inkscape.org/) -->

<svg
   width="210mm"
   height="41mm"
   viewBox="0 0 210 41"
   version="1.1"
   id="svg5"
   xmlns="http://www.w3.org/2000/svg"
   xmlns:svg="http://www.w3.org/2000/svg">
  <defs
     id="defs2" />
  <g
     id="layer1">
    <g
       id="g20059"
       transform="translate(0.22685869,-119.32769)">
      <g
         aria-label="CV-ագիր"
         id="text3708"
         style="font-size:33.1522px;line-height:1.25;stroke-width:0.345335"
         transform="matrix(1.0252982,0,0,1.0252982,-6.4786057,-9.5138081)">
        <path
           d="m 73.248331,136.91882 1.889676,-2.28751 c -2.221198,-2.18804 -5.403809,-3.48098 -8.619572,-3.48098 -6.796201,0 -12.133705,5.17175 -12.133705,11.76903 0,6.63044 5.2712,11.86849 12.001096,11.86849 3.248916,0 6.464679,-1.42554 8.785333,-3.67989 l -1.922828,-2.08859 c -1.790218,1.72391 -4.243481,2.78478 -6.696744,2.78478 -4.97283,0 -8.951094,-3.97826 -8.951094,-8.91794 0,-4.97283 3.978264,-8.91794 8.951094,-8.91794 2.486415,0 4.939678,1.12718 6.696744,2.95055 z"
           style="font-family:'Montserrat arm';-inkscape-font-specification:'Montserrat arm'"
           id="path10940" />
        <path
           d="m 76.464074,131.34925 9.34892,23.20654 h 3.31522 l 9.415225,-23.20654 h -3.348373 l -7.658157,19.65925 -7.658158,-19.65925 z"
           style="font-family:'Montserrat arm';-inkscape-font-specification:'Montserrat arm'"
           id="path10942" />
        <path
           d="m 100.79781,143.3835 v 2.22119 h 7.92337 v -2.22119 z"
           style="font-family:'Montserrat arm';-inkscape-font-specification:'Montserrat arm'"
           id="path10944" />
        <path
           d="m 136.90053,137.01827 v 9.7799 c -0.36468,2.88424 -2.12174,4.87337 -4.77392,4.97283 -2.58587,0 -3.8125,-1.75707 -3.8125,-4.74076 v -10.01197 h -3.08316 v 8.65273 c 0,3.48098 -1.79022,6.00054 -4.80707,6.1 -2.55271,0 -3.8125,-1.75707 -3.8125,-4.74076 v -10.01197 h -3.08315 v 10.84077 c 0,4.24348 2.15489,6.7962 5.83478,6.7962 2.95055,-0.0332 5.1386,-1.39239 6.13316,-4.44239 0.66305,2.81793 2.61902,4.44239 5.56957,4.44239 2.68533,-0.0332 4.74077,-1.12717 5.83479,-3.64674 v 3.54729 h 3.08315 v -17.53752 z"
           style="font-family:'Montserrat arm';-inkscape-font-specification:'Montserrat arm'"
           id="path10946" />
        <path
           d="m 167.66579,152.16883 h -4.97283 v -15.15056 h -3.11631 v 3.44783 c -1.29293,-2.2875 -3.58043,-3.58044 -6.59728,-3.58044 -4.93968,0 -8.38751,3.61359 -8.38751,8.85164 0,5.30435 3.41468,8.98425 8.45381,8.98425 2.9837,0 5.23805,-1.29294 6.53098,-3.58044 v 10.40979 h 3.11631 v -6.99511 h 4.97283 z m -14.02338,-0.0995 c -3.48098,0 -5.90109,-2.58587 -5.93424,-6.23261 0.0332,-3.64674 2.48641,-6.26577 5.93424,-6.26577 3.48098,0 5.93424,2.58587 5.93424,6.26577 0,3.64674 -2.45326,6.23261 -5.93424,6.23261 z"
           style="font-family:'Montserrat arm';-inkscape-font-specification:'Montserrat arm'"
           id="path10948" />
        <path
           d="m 180.03154,136.91882 c -3.08315,0.0331 -5.40381,1.16032 -6.63044,3.74619 v -11.20544 h -3.1163 v 32.09133 h 3.1163 v -16.37719 c 0.26522,-3.1163 2.28751,-5.2712 5.47012,-5.3375 2.91739,0 4.67446,1.75707 4.67446,4.70761 v 10.01197 h 3.1163 v -10.84077 c 0,-4.21033 -2.48641,-6.7962 -6.63044,-6.7962 z"
           style="font-family:'Montserrat arm';-inkscape-font-specification:'Montserrat arm'"
           id="path10950" />
        <path
           d="m 202.11092,136.91882 c -3.08315,0.0331 -5.40381,1.16032 -6.63044,3.74619 v -3.64674 h -3.11631 v 24.53263 h 3.11631 v -16.37719 c 0.26522,-3.1163 2.2875,-5.2712 5.47011,-5.3375 2.9174,0 4.67446,1.75707 4.67446,4.70761 v 10.01197 h 3.11631 v -10.84077 c 0,-4.21033 -2.48642,-6.7962 -6.63044,-6.7962 z"
           style="font-family:'Montserrat arm';-inkscape-font-specification:'Montserrat arm'"
           id="path10952" />
      </g>
      <g
         id="g20045"
         transform="translate(0.45320642,-0.22685872)">
        <g
           id="g12841"
           transform="matrix(1.0852841,0,0,1.0852841,-19.635748,-16.094004)">
          <path
             id="path1820"
             style="stroke-width:1.93869"
             d="m 22.150854,126.28675 c -1.605945,8e-5 -2.907801,1.30193 -2.907884,2.90788 v 29.08027 c -1.77e-4,1.60613 1.301755,2.90827 2.907884,2.90835 h 21.325589 c 1.606315,1.8e-4 2.908538,-1.30204 2.908361,-2.90835 v -4.52015 c -0.10151,0.0148 -0.204247,0.0249 -0.308073,0.0248 h -1.630835 v 4.49539 c 5.9e-5,0.53544 -0.434015,0.96951 -0.969453,0.96945 H 22.150854 c -0.535252,-2e-4 -0.969036,-0.4342 -0.968977,-0.96945 v -29.08027 c 2.01e-4,-0.53507 0.433908,-0.96878 0.968977,-0.96898 H 34.77422 c -0.01373,0.0634 -0.02107,0.128 -0.0219,0.19285 v 9.1141 c -5e-6,0.53542 0.434037,0.96946 0.969453,0.96945 h 8.724126 v 2.26412 l 1.938908,-1.93891 v -0.51662 c -2.28e-4,-0.72816 -0.273619,-1.42973 -0.766136,-1.96605 L 37.25547,127.2291 c -0.551041,-0.60075 -1.328935,-0.94262 -2.14413,-0.94231 z m 14.540369,3.19501 6.496671,7.08138 h -6.496671 z m -7.495168,2.62123 c -2.66781,0.0874 -2.66781,4.04756 0,4.13494 2.848397,0.0933 2.848397,-4.22824 0,-4.13494 z m -0.0019,4.82537 c -2.283773,0 -4.134936,1.58979 -4.134936,3.79019 v 1.03517 c 0.0012,0.38025 0.309696,0.68792 0.689949,0.68804 h 6.892355 c 0.37951,-10e-4 0.686875,-0.30853 0.688046,-0.68804 v -1.03517 c 0,-2.19846 -1.851641,-3.79019 -4.135414,-3.79019 z m -3.16596,9.71453 c -1.289609,0.003 -1.289609,1.93591 0,1.9389 h 13.163804 v -1.68749 c -1.57e-4,-0.0846 0.0063,-0.16825 0.01619,-0.25141 z m 0,4.84678 c -1.292606,0 -1.292606,1.93891 0,1.93891 H 39.59911 c 0.142284,-0.002 0.282416,-0.035 0.410446,-0.0971 -0.495498,-0.38687 -0.817561,-0.98733 -0.817559,-1.65941 v -0.18237 z" />
        </g>
        <path
           id="path11168-8"
           style="stroke-width:0.116033"
           d="m 39.676193,127.33259 a 1.6244597,1.6244597 0 0 0 -1.148768,0.47594 l -14.30817,14.3092 a 1.6174978,1.6174978 0 0 0 -0.47594,1.14877 v 5.18573 a 1.6244597,1.6244597 0 0 0 1.624707,1.62419 h 5.185729 a 1.6174978,1.6174978 0 0 0 1.148252,-0.47542 l 14.308169,-14.30921 a 1.6244597,1.6244597 0 0 0 0,-2.29753 l -5.185212,-5.18573 a 1.6244597,1.6244597 0 0 0 -1.148767,-0.47594 z m -0.02585,1.39475 a 0.23206567,0.23206567 0 0 1 0.190169,0.0667 l 5.184698,5.18521 a 0.23206567,0.23206567 0 0 1 0,0.32866 l -2.948657,2.94814 -5.512326,-5.51284 2.948141,-2.94917 a 0.23206567,0.23206567 0 0 1 0.137975,-0.0667 z m -4.071586,3.99975 2.263944,2.26498 -10.153901,10.15442 -2.263944,-2.26395 z m 3.248898,3.2489 2.263945,2.26498 -10.153902,10.15442 -2.263944,-2.26395 z m -13.691671,8.58656 4.120163,4.12171 H 27.57563 l -2.439646,-2.31304 z" />
      </g>
    </g>
  </g>
</svg>
