<?xml version="1.0" encoding="UTF-8" standalone="no"?>
<!-- Created with Inkscape (http://www.inkscape.org/) -->

<svg
   width="210mm"
   height="41mm"
   viewBox="0 0 210 41"
   version="1.1"
   id="svg5"
   xmlns="http://www.w3.org/2000/svg"
   xmlns:svg="http://www.w3.org/2000/svg">
  <defs
     id="defs2" />
  <g
     id="layer1">
    <g
       id="g28197">
      <g
         aria-label="CV-ագիր"
         id="text3708"
         style="font-size:33.1522px;line-height:1.25;fill:#000000;fill-opacity:1;stroke-width:0.345335"
         transform="matrix(1.0252982,0,0,1.0252982,-6.251747,-128.8415)">
        <path
           d="m 73.248331,136.91882 1.889676,-2.28751 c -2.221198,-2.18804 -5.403809,-3.48098 -8.619572,-3.48098 -6.796201,0 -12.133705,5.17175 -12.133705,11.76903 0,6.63044 5.2712,11.86849 12.001096,11.86849 3.248916,0 6.464679,-1.42554 8.785333,-3.67989 l -1.922828,-2.08859 c -1.790218,1.72391 -4.243481,2.78478 -6.696744,2.78478 -4.97283,0 -8.951094,-3.97826 -8.951094,-8.91794 0,-4.97283 3.978264,-8.91794 8.951094,-8.91794 2.486415,0 4.939678,1.12718 6.696744,2.95055 z"
           style="font-family:'Montserrat arm';-inkscape-font-specification:'Montserrat arm';fill:#000000;fill-opacity:1"
           id="path10940" />
        <path
           d="m 76.464074,131.34925 9.34892,23.20654 h 3.31522 l 9.415225,-23.20654 h -3.348373 l -7.658157,19.65925 -7.658158,-19.65925 z"
           style="font-family:'Montserrat arm';-inkscape-font-specification:'Montserrat arm';fill:#000000;fill-opacity:1"
           id="path10942" />
        <path
           d="m 100.79781,143.3835 v 2.22119 h 7.92337 v -2.22119 z"
           style="font-family:'Montserrat arm';-inkscape-font-specification:'Montserrat arm';fill:#000000;fill-opacity:1"
           id="path10944" />
        <path
           d="m 136.90053,137.01827 v 9.7799 c -0.36468,2.88424 -2.12174,4.87337 -4.77392,4.97283 -2.58587,0 -3.8125,-1.75707 -3.8125,-4.74076 v -10.01197 h -3.08316 v 8.65273 c 0,3.48098 -1.79022,6.00054 -4.80707,6.1 -2.55271,0 -3.8125,-1.75707 -3.8125,-4.74076 v -10.01197 h -3.08315 v 10.84077 c 0,4.24348 2.15489,6.7962 5.83478,6.7962 2.95055,-0.0332 5.1386,-1.39239 6.13316,-4.44239 0.66305,2.81793 2.61902,4.44239 5.56957,4.44239 2.68533,-0.0332 4.74077,-1.12717 5.83479,-3.64674 v 3.54729 h 3.08315 v -17.53752 z"
           style="font-family:'Montserrat arm';-inkscape-font-specification:'Montserrat arm';fill:#000000;fill-opacity:1"
           id="path10946" />
        <path
           d="m 167.66579,152.16883 h -4.97283 v -15.15056 h -3.11631 v 3.44783 c -1.29293,-2.2875 -3.58043,-3.58044 -6.59728,-3.58044 -4.93968,0 -8.38751,3.61359 -8.38751,8.85164 0,5.30435 3.41468,8.98425 8.45381,8.98425 2.9837,0 5.23805,-1.29294 6.53098,-3.58044 v 10.40979 h 3.11631 v -6.99511 h 4.97283 z m -14.02338,-0.0995 c -3.48098,0 -5.90109,-2.58587 -5.93424,-6.23261 0.0332,-3.64674 2.48641,-6.26577 5.93424,-6.26577 3.48098,0 5.93424,2.58587 5.93424,6.26577 0,3.64674 -2.45326,6.23261 -5.93424,6.23261 z"
           style="font-family:'Montserrat arm';-inkscape-font-specification:'Montserrat arm';fill:#000000;fill-opacity:1"
           id="path10948" />
        <path
           d="m 180.03154,136.91882 c -3.08315,0.0331 -5.40381,1.16032 -6.63044,3.74619 v -11.20544 h -3.1163 v 32.09133 h 3.1163 v -16.37719 c 0.26522,-3.1163 2.28751,-5.2712 5.47012,-5.3375 2.91739,0 4.67446,1.75707 4.67446,4.70761 v 10.01197 h 3.1163 v -10.84077 c 0,-4.21033 -2.48641,-6.7962 -6.63044,-6.7962 z"
           style="font-family:'Montserrat arm';-inkscape-font-specification:'Montserrat arm';fill:#000000;fill-opacity:1"
           id="path10950" />
        <path
           d="m 202.11092,136.91882 c -3.08315,0.0331 -5.40381,1.16032 -6.63044,3.74619 v -3.64674 h -3.11631 v 24.53263 h 3.11631 v -16.37719 c 0.26522,-3.1163 2.2875,-5.2712 5.47011,-5.3375 2.9174,0 4.67446,1.75707 4.67446,4.70761 v 10.01197 h 3.11631 v -10.84077 c 0,-4.21033 -2.48642,-6.7962 -6.63044,-6.7962 z"
           style="font-family:'Montserrat arm';-inkscape-font-specification:'Montserrat arm';fill:#000000;fill-opacity:1"
           id="path10952" />
      </g>
      <g
         id="g28178">
        <path
           id="path1820"
           style="fill:#000000;fill-opacity:1;stroke-width:2.10403"
           d="M 5.0842866,1.4084518 C 3.3413801,1.4085386 1.9284965,2.8214157 1.9284064,4.5643277 V 36.124682 c -1.921e-4,1.743108 1.412774,3.1563 3.1558802,3.156386 H 28.228609 c 1.743308,1.96e-4 3.15659,-1.413083 3.156398,-3.156386 v -4.905647 c -0.110167,0.01606 -0.221666,0.02702 -0.334346,0.02692 h -1.76992 v 4.878775 c 6.4e-5,0.581104 -0.471029,1.052194 -1.052132,1.052128 H 5.0842866 C 4.5033862,37.176637 4.0326073,36.705624 4.0326713,36.124726 V 4.5643712 C 4.0328895,3.9836682 4.5035848,3.5129696 5.0842866,3.5127526 H 18.784225 c -0.0149,0.068807 -0.02287,0.1389163 -0.02377,0.209297 v 9.8913874 c -5e-6,0.581083 0.471054,1.05214 1.052132,1.052129 h 9.468155 v 2.457214 l 2.104267,-2.104269 v -0.560679 c -2.48e-4,-0.790261 -0.296955,-1.551663 -0.831476,-2.133723 L 21.477086,2.4311693 C 20.87905,1.7791849 20.034814,1.4081588 19.150096,1.4084952 Z m 15.7804314,3.4674936 7.050734,7.6853086 h -7.050734 z m -8.134387,2.8447792 c -2.8953315,0.094854 -2.8953315,4.3927524 0,4.4875844 3.09132,0.101257 3.09132,-4.5888414 0,-4.4875844 z m -0.0021,5.2368974 c -2.478542,0 -4.4875801,1.725374 -4.4875801,4.113433 v 1.123453 c 0.0013,0.41268 0.3361082,0.746589 0.7487907,0.746719 h 7.4801634 c 0.411876,-0.0011 0.745454,-0.334842 0.746725,-0.746719 v -1.123453 c 0,-2.385954 -2.009556,-4.113433 -4.488099,-4.113433 z M 9.2923032,23.500647 c -1.3995922,0.0033 -1.3995922,2.101012 0,2.104257 H 23.57877 v -1.831406 c -1.7e-4,-0.09182 0.0068,-0.182599 0.01757,-0.272851 z m 0,5.260133 c -1.4028448,0 -1.4028448,2.104268 0,2.104268 H 24.020601 c 0.154419,-0.0022 0.306502,-0.03799 0.445451,-0.105381 -0.537756,-0.419864 -0.887286,-1.071533 -0.887284,-1.800931 v -0.197923 z" />
        <path
           id="path11168-8"
           style="fill:#000000;fill-opacity:1;stroke-width:0.116033"
           d="M 40.356258,7.77804 A 1.6244597,1.6244597 0 0 0 39.20749,8.25398 l -14.30817,14.3092 a 1.6174978,1.6174978 0 0 0 -0.47594,1.14877 v 5.18573 a 1.6244597,1.6244597 0 0 0 1.624707,1.62419 h 5.185729 a 1.6174978,1.6174978 0 0 0 1.148252,-0.47542 L 46.690237,15.73724 a 1.6244597,1.6244597 0 0 0 0,-2.29753 L 41.505025,8.25398 A 1.6244597,1.6244597 0 0 0 40.356258,7.77804 Z m -0.02585,1.39475 a 0.23206567,0.23206567 0 0 1 0.190169,0.0667 l 5.184698,5.18521 a 0.23206567,0.23206567 0 0 1 0,0.32866 l -2.948657,2.94814 -5.512326,-5.51284 2.948141,-2.94917 a 0.23206567,0.23206567 0 0 1 0.137975,-0.0667 z m -4.071586,3.99975 2.263944,2.26498 -10.153901,10.15442 -2.263944,-2.26395 z m 3.248898,3.2489 2.263945,2.26498 -10.153902,10.15442 -2.263944,-2.26395 z m -13.691671,8.58656 4.120163,4.12171 h -1.680517 l -2.439646,-2.31304 z" />
        <path
           style="fill:#ffea74;fill-opacity:1;fill-rule:evenodd;stroke:none;stroke-width:0.529177;stroke-miterlimit:4;stroke-dasharray:none;stroke-opacity:1"
           d="m 27.271062,24.422618 -1.105569,-1.109342 5.036271,-5.036272 5.036273,-5.036272 1.107863,1.107865 1.107866,1.107864 -5.038569,5.037749 -5.038571,5.03775 z"
           id="path21044" />
        <path
           style="fill:#ffea74;fill-opacity:1;fill-rule:evenodd;stroke:none;stroke-width:0.529177;stroke-miterlimit:4;stroke-dasharray:none;stroke-opacity:1"
           d="m 30.487961,27.639515 -1.051938,-1.055902 5.036208,-5.036208 5.036209,-5.03621 1.081077,1.081076 1.081077,1.081076 -5.010203,5.011034 c -2.755612,2.756069 -5.035018,5.011036 -5.065347,5.011036 -0.03033,0 -0.528516,-0.475155 -1.107083,-1.055902 z"
           id="path21083" />
        <path
           style="fill:#ffacfc;fill-opacity:1;fill-rule:evenodd;stroke:none;stroke-width:0.529177;stroke-miterlimit:4;stroke-dasharray:none;stroke-opacity:1"
           d="m 40.009124,14.900648 -2.716299,-2.717807 1.452292,-1.449515 c 0.798764,-0.7972332 1.523249,-1.449515 1.609969,-1.449515 0.08672,0 1.343887,1.186928 2.793708,2.637619 l 2.636036,2.637618 -1.529704,1.529704 -1.529705,1.529704 z"
           id="path21122" />
        <path
           style="fill:#ffffff;fill-opacity:1;fill-rule:evenodd;stroke:none;stroke-width:0.373824;stroke-miterlimit:4;stroke-dasharray:none;stroke-opacity:1"
           d="M 4.5437984,36.967639 C 4.4344334,36.899789 4.2751334,36.720044 4.1897974,36.56821 L 4.0346414,36.292147 V 20.326504 4.3608603 l 0.156078,-0.277702 c 0.316774,-0.563624 -0.236836,-0.52512 7.5502836,-0.52512 h 6.975362 V 8.720162 c 0,4.857136 0.008,5.177126 0.13618,5.416046 0.0749,0.139656 0.250444,0.315202 0.390101,0.3901 0.23849,0.127905 0.549516,0.136181 5.11794,0.136181 h 4.864018 v 1.731189 1.73119 L 26.9178,20.436742 c -1.534301,1.537673 -2.345418,2.404663 -2.422112,2.588954 -0.09755,0.234422 -0.115308,0.738529 -0.115308,3.274269 0,2.887797 0.0057,3.008931 0.155745,3.318914 0.186148,0.38453 0.56683,0.715984 0.95636,0.832691 0.177248,0.0531 0.931725,0.08507 2.008023,0.08507 h 1.724096 v 2.877756 c 0,2.782842 -0.0052,2.886914 -0.156077,3.155458 -0.322022,0.572958 0.811019,0.525351 -12.450403,0.523137 C 5.6987964,37.091091 4.7266334,37.081081 4.5437984,36.967642 Z m 19.7255126,-6.133172 0.196741,-0.0748 -0.261645,-0.305673 C 23.859053,30.050526 23.709885,29.721805 23.61149,29.147378 l -0.08118,-0.473906 -7.120776,0.0019 c -4.08068,0.0011 -7.248048,0.03115 -7.418883,0.07059 -0.188767,0.04357 -0.386943,0.165523 -0.540317,0.332497 -0.215036,0.234103 -0.242211,0.312121 -0.242211,0.695359 0,0.577506 0.218901,0.903213 0.708002,1.053454 0.316081,0.09709 15.098526,0.10414 15.353183,0.0073 z m -0.708723,-6.17933 c 0,-0.529512 0.02036,-1.015798 0.04524,-1.080634 0.04106,-0.107005 -0.633367,-0.117886 -7.3073,-0.117886 -6.492273,0 -7.378648,0.0135 -7.57571,0.115408 -0.702985,0.363527 -0.685314,1.625665 0.0271,1.935369 0.201128,0.08744 1.439521,0.105138 7.52571,0.107575 l 7.284967,0.0029 z M 16.777639,18.85449 c 0.142893,-0.07167 0.301699,-0.214149 0.352902,-0.316623 0.117504,-0.235165 0.126498,-1.779613 0.01354,-2.325285 -0.311017,-1.502441 -1.556412,-2.731679 -3.197414,-3.155932 -0.621045,-0.16056 -1.884485,-0.160461 -2.496638,2.24e-4 -0.817359,0.214511 -1.51818,0.613661 -2.088017,1.189221 -0.924495,0.933751 -1.153887,1.573222 -1.153887,3.216634 0,1.034158 0.0038,1.058573 0.192046,1.246859 0.105626,0.105626 0.264926,0.206243 0.354001,0.223593 0.08907,0.01735 1.872339,0.03606 3.962807,0.04158 3.481999,0.0092 3.822648,-8.99e-4 4.060659,-0.120271 z M 13.843558,11.996445 C 14.331839,11.743636 14.594635,11.48193 14.818146,11.0259 14.996819,10.661355 15.026419,10.510547 15.025917,9.967318 15.025176,9.186116 14.831858,8.699276 14.343621,8.249235 13.857906,7.801518 13.575836,7.701721 12.791507,7.700094 c -0.801892,-0.0017 -1.204104,0.149412 -1.666624,0.626008 -0.44458,0.458109 -0.628889,1.006547 -0.589119,1.753006 0.05497,1.031653 0.59173,1.771303 1.482129,2.042342 0.425393,0.129491 1.47262,0.05779 1.825665,-0.125005 z"
           id="path27187-5" />
        <path
           style="fill:#ffffff;fill-opacity:1;fill-rule:evenodd;stroke:none;stroke-width:0.526817;stroke-miterlimit:4;stroke-dasharray:none;stroke-opacity:1"
           d="M 20.952923,8.7975711 V 5.0969073 l 0.403726,0.4185643 c 0.918585,0.9523444 6.318013,6.8695224 6.318013,6.9238454 0,0.0324 -1.512391,0.05892 -3.360869,0.05892 h -3.36087 z"
           id="path27578" />
        <path
           style="fill:#000000;fill-opacity:1;fill-rule:evenodd;stroke:none;stroke-width:5.2706;stroke-miterlimit:4;stroke-dasharray:none;stroke-opacity:1"
           d="m 32.748634,70.751058 c -1.551976,-1.551975 -0.630987,-10.433597 1.432965,-13.818902 4.331283,-7.104197 16.3802,-9.534164 22.993759,-4.63727 6.295545,4.661426 9.666556,14.41458 6.185367,17.895768 -1.355238,1.355239 -29.30558,1.866916 -30.612091,0.560404 z"
           id="path27901"
           transform="scale(0.26458333)" />
      </g>
    </g>
  </g>
  <path
     style="fill:#ffffff;fill-rule:evenodd;stroke-width:3.76295"
     d="m 102.13418,105.13608 c -3.726553,-3.76585 -4.311149,-4.73156 -4.102565,-6.77716 l 0.243246,-2.385527 6.736069,6.777157 6.73607,6.77716 h -2.63351 c -2.2164,0 -3.32182,-0.69557 -6.97931,-4.39163 z"
     id="path877"
     transform="scale(0.26458333)" />
</svg>
